<svg xmlns="http://www.w3.org/2000/svg" width="512" height="512"><g font-family="sans-serif" font-weight="bold" text-anchor="middle"><g stroke="#000"><text x="552" y="-7.568" fill="#F0F" font-size="46">Hello World!</text><text x="548" y="-.425" fill="#F0F" font-size="46">Hello World!</text><text x="544" y="7.416" fill="#F0F" font-size="46">Hello World!</text><text x="540" y="15.35" fill="#F0F" font-size="46">Hello World!</text><text x="536" y="22.755" fill="#F0F" font-size="46">Hello World!</text><text x="532" y="29.093" fill="#F0F" font-size="46">Hello World!</text><text x="528" y="33.996" fill="#F0F" font-size="46">Hello World!</text><text x="524" y="37.32" fill="#F0F" font-size="46">Hello World!</text><text x="520" y="39.174" fill="#F0F" font-size="46">Hello World!</text><text x="516" y="39.894" fill="#F0F" font-size="46">Hello World!</text><text x="512" y="40" fill="#F0F" font-size="46">Hello World!</text><text x="508" y="40.106" fill="#FF04FB" font-size="46">Hello World!</text><text x="504" y="40.826" fill="#FF08F7" font-size="46">Hello World!</text><text x="500" y="42.68" fill="#FF0CF3" font-size="46">Hello World!</text><text x="496" y="46.004" fill="#FF10EF" font-size="46">Hello World!</text><text x="492" y="50.907" fill="#FF14EB" font-size="46">Hello World!</text><text x="488" y="57.245" fill="#FF18E7" font-size="46">Hello World!</text><text x="484" y="64.65" fill="#FF1CE3" font-size="46">Hello World!</text><text x="480" y="72.584" fill="#FF20DF" font-size="46">Hello World!</text><text x="476" y="80.425" fill="#FF24DB" font-size="46">Hello World!</text><text x="472" y="87.568" fill="#FF28D7" font-size="46">Hello World!</text><text x="468" y="93.516" fill="#FF2CD3" font-size="46">Hello World!</text><text x="464" y="97.962" fill="#FF30CF" font-size="46">Hello World!</text><text x="460" y="100.835" fill="#FF34CB" font-size="46">Hello World!</text><text x="456" y="102.313" fill="#FF38C7" font-size="46">Hello World!</text><text x="452" y="102.794" fill="#FF3CC3" font-size="46">Hello World!</text><text x="448" y="102.835" fill="#FF40BF" font-size="46">Hello World!</text><text x="444" y="103.059" fill="#F4B" font-size="46">Hello World!</text><text x="440" y="104.063" fill="#FF48B7" font-size="46">Hello World!</text><text x="436" y="106.321" fill="#FF4CB3" font-size="46">Hello World!</text><text x="432" y="110.106" fill="#FF50AF" font-size="46">Hello World!</text><text x="428" y="115.454" fill="#FF54AB" font-size="46">Hello World!</text><text x="424" y="122.151" fill="#FF58A7" font-size="46">Hello World!</text><text x="420" y="129.771" fill="#FF5CA3" font-size="46">Hello World!</text><text x="416" y="137.743" fill="#FF609F" font-size="46">Hello World!</text><text x="412" y="145.44" fill="#FF649B" font-size="46">Hello World!</text><text x="408" y="152.278" fill="#FF6897" font-size="46">Hello World!</text><text x="404" y="157.809" fill="#FF6C93" font-size="46">Hello World!</text><text x="400" y="161.792" fill="#FF708F" font-size="46">Hello World!</text><text x="396" y="164.228" fill="#FF748B" font-size="46">Hello World!</text><text x="392" y="165.366" fill="#FF7887" font-size="46">Hello World!</text><text x="388" y="165.656" fill="#FF7C83" font-size="46">Hello World!</text><text x="384" y="165.685" fill="#FF807F" font-size="46">Hello World!</text><text x="380" y="166.079" fill="#FF847B" font-size="46">Hello World!</text><text x="376" y="167.408" fill="#F87" font-size="46">Hello World!</text><text x="372" y="170.094" fill="#FF8C73" font-size="46">Hello World!</text><text x="368" y="174.343" fill="#FF906F" font-size="46">Hello World!</text><text x="364" y="180.117" fill="#FF946B" font-size="46">Hello World!</text><text x="360" y="187.136" fill="#FF9867" font-size="46">Hello World!</text><text x="356" y="194.922" fill="#FF9C63" font-size="46">Hello World!</text><text x="352" y="202.879" fill="#FFA05F" font-size="46">Hello World!</text><text x="348" y="210.381" fill="#FFA45B" font-size="46">Hello World!</text><text x="344" y="216.876" fill="#FFA857" font-size="46">Hello World!</text><text x="340" y="221.969" fill="#FFAC53" font-size="46">Hello World!</text><text x="336" y="225.488" fill="#FFB04F" font-size="46">Hello World!</text><text x="332" y="227.51" fill="#FFB44B" font-size="46">Hello World!</text><text x="328" y="228.346" fill="#FFB847" font-size="46">Hello World!</text><text x="324" y="228.495" fill="#FFBC43" font-size="46">Hello World!</text><text x="320" y="228.567" fill="#FFC03F" font-size="46">Hello World!</text><text x="316" y="229.18" fill="#FFC43B" font-size="46">Hello World!</text><text x="312" y="230.871" fill="#FFC837" font-size="46">Hello World!</text><text x="308" y="234.002" fill="#FC3" font-size="46">Hello World!</text><text x="304" y="238.712" fill="#FFD02F" font-size="46">Hello World!</text><text x="300" y="244.888" fill="#FFD42B" font-size="46">Hello World!</text><text x="296" y="252.187" fill="#FFD827" font-size="46">Hello World!</text><text x="292" y="260.089" fill="#FFDC23" font-size="46">Hello World!</text><text x="288" y="267.976" fill="#FFE01F" font-size="46">Hello World!</text><text x="284" y="275.235" fill="#FFE41B" font-size="46">Hello World!</text><text x="280" y="281.352" fill="#FFE817" font-size="46">Hello World!</text><text x="276" y="285.993" fill="#FFEC13" font-size="46">Hello World!</text><text x="272" y="289.056" fill="#FFF00F" font-size="46">Hello World!</text><text x="268" y="290.689" fill="#FFF40B" font-size="46">Hello World!</text><text x="264" y="291.266" fill="#FFF807" font-size="46">Hello World!</text><text x="260" y="291.328" fill="#FFFC03" font-size="46">Hello World!</text><text x="256" y="291.496" fill="#FF0" font-size="46">Hello World!</text><text x="0" y="0" fill="#fff" font-size="100">PSVG</text><text x=".106" y="4" fill="#fff" font-size="100">PSVG</text><text x=".826" y="8" fill="#fff" font-size="100">PSVG</text><text x="2.68" y="12" fill="#fff" font-size="100">PSVG</text><text x="6.004" y="16" fill="#fff" font-size="100">PSVG</text><text x="10.907" y="20" fill="#fff" font-size="100">PSVG</text><text x="17.245" y="24" fill="#fff" font-size="100">PSVG</text><text x="24.65" y="28" fill="#fff" font-size="100">PSVG</text><text x="32.584" y="32" fill="#fff" font-size="100">PSVG</text><text x="40.425" y="36" fill="#fff" font-size="100">PSVG</text><text x="47.568" y="40" fill="#fff" font-size="100">PSVG</text><text x="53.516" y="44" fill="#fff" font-size="100">PSVG</text><text x="57.962" y="48" fill="#fff" font-size="100">PSVG</text><text x="60.835" y="52" fill="#fff" font-size="100">PSVG</text><text x="62.313" y="56" fill="#fff" font-size="100">PSVG</text><text x="62.794" y="60" fill="#fff" font-size="100">PSVG</text><text x="62.835" y="64" fill="#fff" font-size="100">PSVG</text><text x="63.059" y="68" fill="#fff" font-size="100">PSVG</text><text x="64.063" y="72" fill="#fff" font-size="100">PSVG</text><text x="66.321" y="76" fill="#fff" font-size="100">PSVG</text><text x="70.106" y="80" fill="#fff" font-size="100">PSVG</text><text x="75.454" y="84" fill="#fff" font-size="100">PSVG</text><text x="82.151" y="88" fill="#fff" font-size="100">PSVG</text><text x="89.771" y="92" fill="#fff" font-size="100">PSVG</text><text x="97.743" y="96" fill="#fff" font-size="100">PSVG</text><text x="105.44" y="100" fill="#fff" font-size="100">PSVG</text><text x="112.278" y="104" fill="#fff" font-size="100">PSVG</text><text x="117.809" y="108" fill="#fff" font-size="100">PSVG</text><text x="121.792" y="112" fill="#fff" font-size="100">PSVG</text><text x="124.228" y="116" fill="#fff" font-size="100">PSVG</text><text x="125.366" y="120" fill="#fff" font-size="100">PSVG</text><text x="125.656" y="124" fill="#fff" font-size="100">PSVG</text><text x="125.685" y="128" fill="#fff" font-size="100">PSVG</text><text x="126.079" y="132" fill="#fff" font-size="100">PSVG</text><text x="127.408" y="136" fill="#fff" font-size="100">PSVG</text><text x="130.094" y="140" fill="#fff" font-size="100">PSVG</text><text x="134.343" y="144" fill="#fff" font-size="100">PSVG</text><text x="140.117" y="148" fill="#fff" font-size="100">PSVG</text><text x="147.136" y="152" fill="#fff" font-size="100">PSVG</text><text x="154.922" y="156" fill="#fff" font-size="100">PSVG</text><text x="162.879" y="160" fill="#fff" font-size="100">PSVG</text><text x="170.381" y="164" fill="#fff" font-size="100">PSVG</text><text x="176.876" y="168" fill="#fff" font-size="100">PSVG</text><text x="181.969" y="172" fill="#fff" font-size="100">PSVG</text><text x="185.488" y="176" fill="#fff" font-size="100">PSVG</text><text x="187.51" y="180" fill="#fff" font-size="100">PSVG</text><text x="188.346" y="184" fill="#fff" font-size="100">PSVG</text><text x="188.495" y="188" fill="#fff" font-size="100">PSVG</text><text x="188.567" y="192" fill="#fff" font-size="100">PSVG</text><text x="189.18" y="196" fill="#fff" font-size="100">PSVG</text><text x="190.871" y="200" fill="#fff" font-size="100">PSVG</text><text x="194.002" y="204" fill="#fff" font-size="100">PSVG</text><text x="198.712" y="208" fill="#fff" font-size="100">PSVG</text><text x="204.888" y="212" fill="#fff" font-size="100">PSVG</text><text x="212.187" y="216" fill="#fff" font-size="100">PSVG</text><text x="220.089" y="220" fill="#fff" font-size="100">PSVG</text><text x="227.976" y="224" fill="#fff" font-size="100">PSVG</text><text x="235.235" y="228" fill="#fff" font-size="100">PSVG</text><text x="241.352" y="232" fill="#fff" font-size="100">PSVG</text><text x="245.993" y="236" fill="#fff" font-size="100">PSVG</text><text x="249.056" y="240" fill="#fff" font-size="100">PSVG</text><text x="250.689" y="244" fill="#fff" font-size="100">PSVG</text><text x="251.266" y="248" fill="#fff" font-size="100">PSVG</text><text x="251.328" y="252" fill="#fff" font-size="100">PSVG</text><text x="251.496" y="256" fill="#fff" font-size="100">PSVG</text></g></g></svg>